<svg width="30" height="30" viewBox="0 0 30 30" fill="none" xmlns="http://www.w3.org/2000/svg">
<path d="M15 0C12.0333 0 9.13319 0.879735 6.66645 2.52796C4.19971 4.17618 2.27713 6.51886 1.14181 9.25975C0.00649927 12.0006 -0.290551 15.0166 0.288228 17.9264C0.867006 20.8361 2.29562 23.5088 4.3934 25.6066C6.49119 27.7044 9.16394 29.133 12.0736 29.7118C14.9834 30.2906 17.9994 29.9935 20.7403 28.8582C23.4811 27.7229 25.8238 25.8003 27.472 23.3335C29.1203 20.8668 30 17.9667 30 15C29.9958 11.023 28.4141 7.21017 25.602 4.39804C22.7898 1.5859 18.977 0.00419974 15 0ZM15 27.6923C12.4897 27.6923 10.0358 26.9479 7.94854 25.5533C5.8613 24.1586 4.23449 22.1763 3.27384 19.8571C2.31319 17.5379 2.06184 14.9859 2.55158 12.5239C3.04131 10.0618 4.25014 7.80023 6.02519 6.02518C7.80024 4.25013 10.0618 3.04131 12.5239 2.55157C14.9859 2.06184 17.5379 2.31319 19.8571 3.27384C22.1764 4.23449 24.1586 5.86129 25.5533 7.94853C26.9479 10.0358 27.6923 12.4897 27.6923 15C27.6885 18.365 26.35 21.5912 23.9706 23.9706C21.5912 26.35 18.365 27.6885 15 27.6923ZM21.9231 15C21.9231 15.306 21.8015 15.5995 21.5851 15.8159C21.3687 16.0323 21.0753 16.1538 20.7692 16.1538H12.0159L14.6625 18.799C14.7697 18.9062 14.8547 19.0335 14.9128 19.1736C14.9708 19.3136 15.0006 19.4638 15.0006 19.6154C15.0006 19.767 14.9708 19.9171 14.9128 20.0572C14.8547 20.1973 14.7697 20.3245 14.6625 20.4317C14.5553 20.5389 14.428 20.624 14.288 20.682C14.1479 20.74 13.9978 20.7699 13.8462 20.7699C13.6945 20.7699 13.5444 20.74 13.4044 20.682C13.2643 20.624 13.137 20.5389 13.0298 20.4317L8.41443 15.8163C8.30715 15.7092 8.22204 15.5819 8.16397 15.4419C8.10591 15.3018 8.07602 15.1516 8.07602 15C8.07602 14.8484 8.10591 14.6982 8.16397 14.5581C8.22204 14.4181 8.30715 14.2908 8.41443 14.1837L13.0298 9.56827C13.2463 9.35176 13.54 9.23013 13.8462 9.23013C14.1523 9.23013 14.446 9.35176 14.6625 9.56827C14.879 9.78478 15.0006 10.0784 15.0006 10.3846C15.0006 10.6908 14.879 10.9845 14.6625 11.201L12.0159 13.8462H20.7692C21.0753 13.8462 21.3687 13.9677 21.5851 14.1841C21.8015 14.4005 21.9231 14.694 21.9231 15Z" fill="white"/>
</svg>
