<svg width="74" height="30" viewBox="0 0 74 30" fill="none" xmlns="http://www.w3.org/2000/svg">
<path d="M15 0C12.0333 0 9.13319 0.879735 6.66645 2.52796C4.19971 4.17618 2.27713 6.51886 1.14181 9.25975C0.00649927 12.0006 -0.290551 15.0166 0.288228 17.9264C0.867006 20.8361 2.29562 23.5088 4.3934 25.6066C6.49119 27.7044 9.16394 29.133 12.0736 29.7118C14.9834 30.2906 17.9994 29.9935 20.7403 28.8582C23.4811 27.7229 25.8238 25.8003 27.472 23.3335C29.1203 20.8668 30 17.9667 30 15C29.9958 11.023 28.4141 7.21017 25.602 4.39804C22.7898 1.5859 18.977 0.00419974 15 0ZM15 27.6923C12.4897 27.6923 10.0358 26.9479 7.94854 25.5533C5.8613 24.1586 4.23449 22.1763 3.27384 19.8571C2.31319 17.5379 2.06184 14.9859 2.55158 12.5239C3.04131 10.0618 4.25014 7.80023 6.02519 6.02518C7.80024 4.25013 10.0618 3.04131 12.5239 2.55157C14.9859 2.06184 17.5379 2.31319 19.8571 3.27384C22.1764 4.23449 24.1586 5.86129 25.5533 7.94853C26.9479 10.0358 27.6923 12.4897 27.6923 15C27.6885 18.365 26.35 21.5912 23.9706 23.9706C21.5912 26.35 18.365 27.6885 15 27.6923ZM21.9231 15C21.9231 15.306 21.8015 15.5995 21.5851 15.8159C21.3687 16.0323 21.0753 16.1538 20.7692 16.1538H16.1538V20.7692C16.1538 21.0752 16.0323 21.3687 15.8159 21.5851C15.5995 21.8015 15.306 21.9231 15 21.9231C14.694 21.9231 14.4005 21.8015 14.1841 21.5851C13.9677 21.3687 13.8462 21.0752 13.8462 20.7692V16.1538H9.23077C8.92475 16.1538 8.63127 16.0323 8.41488 15.8159C8.19849 15.5995 8.07693 15.306 8.07693 15C8.07693 14.694 8.19849 14.4005 8.41488 14.1841C8.63127 13.9677 8.92475 13.8462 9.23077 13.8462H13.8462V9.23077C13.8462 8.92475 13.9677 8.63126 14.1841 8.41488C14.4005 8.19849 14.694 8.07692 15 8.07692C15.306 8.07692 15.5995 8.19849 15.8159 8.41488C16.0323 8.63126 16.1538 8.92475 16.1538 9.23077V13.8462H20.7692C21.0753 13.8462 21.3687 13.9677 21.5851 14.1841C21.8015 14.4005 21.9231 14.694 21.9231 15Z" fill="#FFFDFD"/>
<path d="M42.78 18.9H36.7L35.58 22H33.66L38.7 8.14H40.8L45.82 22H43.9L42.78 18.9ZM42.26 17.42L39.74 10.38L37.22 17.42H42.26ZM47.3366 16.48C47.3366 15.36 47.5632 14.38 48.0166 13.54C48.4699 12.6867 49.0899 12.0267 49.8766 11.56C50.6766 11.0933 51.5699 10.86 52.5566 10.86C53.4099 10.86 54.2032 11.06 54.9366 11.46C55.6699 11.8467 56.2299 12.36 56.6166 13V7.2H58.4566V22H56.6166V19.94C56.2566 20.5933 55.7232 21.1333 55.0166 21.56C54.3099 21.9733 53.4832 22.18 52.5366 22.18C51.5632 22.18 50.6766 21.94 49.8766 21.46C49.0899 20.98 48.4699 20.3067 48.0166 19.44C47.5632 18.5733 47.3366 17.5867 47.3366 16.48ZM56.6166 16.5C56.6166 15.6733 56.4499 14.9533 56.1166 14.34C55.7832 13.7267 55.3299 13.26 54.7566 12.94C54.1966 12.6067 53.5766 12.44 52.8966 12.44C52.2166 12.44 51.5966 12.6 51.0366 12.92C50.4766 13.24 50.0299 13.7067 49.6966 14.32C49.3632 14.9333 49.1966 15.6533 49.1966 16.48C49.1966 17.32 49.3632 18.0533 49.6966 18.68C50.0299 19.2933 50.4766 19.7667 51.0366 20.1C51.5966 20.42 52.2166 20.58 52.8966 20.58C53.5766 20.58 54.1966 20.42 54.7566 20.1C55.3299 19.7667 55.7832 19.2933 56.1166 18.68C56.4499 18.0533 56.6166 17.3267 56.6166 16.5ZM60.8522 16.48C60.8522 15.36 61.0789 14.38 61.5322 13.54C61.9855 12.6867 62.6055 12.0267 63.3922 11.56C64.1922 11.0933 65.0855 10.86 66.0722 10.86C66.9255 10.86 67.7189 11.06 68.4522 11.46C69.1855 11.8467 69.7455 12.36 70.1322 13V7.2H71.9722V22H70.1322V19.94C69.7722 20.5933 69.2389 21.1333 68.5322 21.56C67.8255 21.9733 66.9989 22.18 66.0522 22.18C65.0789 22.18 64.1922 21.94 63.3922 21.46C62.6055 20.98 61.9855 20.3067 61.5322 19.44C61.0789 18.5733 60.8522 17.5867 60.8522 16.48ZM70.1322 16.5C70.1322 15.6733 69.9655 14.9533 69.6322 14.34C69.2989 13.7267 68.8455 13.26 68.2722 12.94C67.7122 12.6067 67.0922 12.44 66.4122 12.44C65.7322 12.44 65.1122 12.6 64.5522 12.92C63.9922 13.24 63.5455 13.7067 63.2122 14.32C62.8789 14.9333 62.7122 15.6533 62.7122 16.48C62.7122 17.32 62.8789 18.0533 63.2122 18.68C63.5455 19.2933 63.9922 19.7667 64.5522 20.1C65.1122 20.42 65.7322 20.58 66.4122 20.58C67.0922 20.58 67.7122 20.42 68.2722 20.1C68.8455 19.7667 69.2989 19.2933 69.6322 18.68C69.9655 18.0533 70.1322 17.3267 70.1322 16.5Z" fill="white"/>
</svg>
