<svg width="69" height="33" viewBox="0 0 69 33" fill="none" xmlns="http://www.w3.org/2000/svg">
<path d="M24.4138 9.17122L18.8288 3.58497C18.643 3.39921 18.4225 3.25185 18.1799 3.15131C17.9372 3.05077 17.6771 2.99902 17.4144 2.99902C17.1517 2.99902 16.8916 3.05077 16.6489 3.15131C16.4062 3.25185 16.1857 3.39921 16 3.58497L0.58626 19C0.399734 19.185 0.251852 19.4053 0.151209 19.648C0.0505661 19.8907 -0.000829299 20.151 1.01187e-05 20.4137V26C1.01187e-05 26.5304 0.210724 27.0391 0.585796 27.4142C0.960869 27.7893 1.46958 28 2.00001 28H7.58626C7.849 28.0008 8.10929 27.9494 8.35199 27.8488C8.59469 27.7481 8.81497 27.6002 9.00001 27.4137L24.4138 12C24.5995 11.8142 24.7469 11.5937 24.8474 11.3511C24.948 11.1084 24.9997 10.8483 24.9997 10.5856C24.9997 10.3229 24.948 10.0628 24.8474 9.82012C24.7469 9.57744 24.5995 9.35695 24.4138 9.17122ZM7.58626 26H2.00001V20.4137L13 9.41372L18.5863 15L7.58626 26ZM20 13.585L14.4138 7.99997L17.4138 4.99997L23 10.585L20 13.585Z" fill="white"/>
<path d="M32.696 10.294V15.42H38.284V17.07H32.696V22.35H38.944V24H30.694V8.644H38.944V10.294H32.696ZM41.2253 17.928C41.2253 16.696 41.4746 15.618 41.9733 14.694C42.472 13.7553 43.154 13.0293 44.0193 12.516C44.8993 12.0027 45.882 11.746 46.9673 11.746C47.906 11.746 48.7786 11.966 49.5853 12.406C50.392 12.8313 51.008 13.396 51.4333 14.1V7.72H53.4573V24H51.4333V21.734C51.0373 22.4527 50.4506 23.0467 49.6733 23.516C48.896 23.9707 47.9866 24.198 46.9453 24.198C45.8746 24.198 44.8993 23.934 44.0193 23.406C43.154 22.878 42.472 22.1373 41.9733 21.184C41.4746 20.2307 41.2253 19.1453 41.2253 17.928ZM51.4333 17.95C51.4333 17.0407 51.25 16.2487 50.8833 15.574C50.5166 14.8993 50.018 14.386 49.3873 14.034C48.7713 13.6673 48.0893 13.484 47.3413 13.484C46.5933 13.484 45.9113 13.66 45.2953 14.012C44.6793 14.364 44.188 14.8773 43.8213 15.552C43.4546 16.2267 43.2713 17.0187 43.2713 17.928C43.2713 18.852 43.4546 19.6587 43.8213 20.348C44.188 21.0227 44.6793 21.5433 45.2953 21.91C45.9113 22.262 46.5933 22.438 47.3413 22.438C48.0893 22.438 48.7713 22.262 49.3873 21.91C50.018 21.5433 50.5166 21.0227 50.8833 20.348C51.25 19.6587 51.4333 18.8593 51.4333 17.95ZM57.8745 9.986C57.4932 9.986 57.1705 9.854 56.9065 9.59C56.6425 9.326 56.5105 9.00333 56.5105 8.622C56.5105 8.24067 56.6425 7.918 56.9065 7.654C57.1705 7.39 57.4932 7.258 57.8745 7.258C58.2412 7.258 58.5492 7.39 58.7985 7.654C59.0625 7.918 59.1945 8.24067 59.1945 8.622C59.1945 9.00333 59.0625 9.326 58.7985 9.59C58.5492 9.854 58.2412 9.986 57.8745 9.986ZM58.8425 11.944V24H56.8405V11.944H58.8425ZM64.6965 13.594V20.7C64.6965 21.2867 64.8212 21.7047 65.0705 21.954C65.3199 22.1887 65.7525 22.306 66.3685 22.306H67.8425V24H66.0385C64.9239 24 64.0879 23.7433 63.5305 23.23C62.9732 22.7167 62.6945 21.8733 62.6945 20.7V13.594H61.1325V11.944H62.6945V8.908H64.6965V11.944H67.8425V13.594H64.6965Z" fill="white"/>
</svg>
