<svg width="91" height="30" viewBox="0 0 91 30" fill="none" xmlns="http://www.w3.org/2000/svg">
<path d="M25.7351 26.2925L19.4764 20.035C21.2904 17.8572 22.195 15.0638 22.0019 12.236C21.8089 9.40814 20.533 6.76361 18.4398 4.85251C16.3466 2.9414 13.5972 1.91086 10.7635 1.97526C7.92984 2.03966 5.23008 3.19404 3.22586 5.19827C1.22163 7.20249 0.0672461 9.90225 0.00284627 12.7359C-0.0615536 15.5696 0.968989 18.319 2.88009 20.4122C4.7912 22.5054 7.43573 23.7813 10.2635 23.9743C13.0914 24.1674 15.8848 23.2628 18.0626 21.4488L24.3201 27.7075C24.413 27.8005 24.5233 27.8742 24.6447 27.9244C24.7661 27.9747 24.8962 28.0006 25.0276 28.0006C25.159 28.0006 25.2891 27.9747 25.4105 27.9244C25.5319 27.8742 25.6422 27.8005 25.7351 27.7075C25.828 27.6146 25.9017 27.5043 25.952 27.3829C26.0023 27.2615 26.0282 27.1314 26.0282 27C26.0282 26.8686 26.0023 26.7385 25.952 26.6171C25.9017 26.4958 25.828 26.3855 25.7351 26.2925ZM2.02763 13C2.02763 11.22 2.55547 9.47995 3.5444 7.99991C4.53334 6.51987 5.93894 5.36631 7.58348 4.68513C9.22801 4.00394 11.0376 3.82571 12.7834 4.17297C14.5293 4.52024 16.1329 5.37741 17.3916 6.63608C18.6503 7.89475 19.5074 9.4984 19.8547 11.2442C20.202 12.9901 20.0237 14.7997 19.3425 16.4442C18.6614 18.0887 17.5078 19.4943 16.0278 20.4833C14.5477 21.4722 12.8077 22 11.0276 22C8.64149 21.9974 6.35385 21.0483 4.66659 19.3611C2.97934 17.6738 2.03028 15.3862 2.02763 13Z" fill="white"/>
<path d="M34.9876 22.14C34.0676 22.14 33.2409 21.98 32.5076 21.66C31.7876 21.3267 31.2209 20.8733 30.8076 20.3C30.3943 19.7133 30.1809 19.04 30.1676 18.28H32.1076C32.1743 18.9333 32.4409 19.4867 32.9076 19.94C33.3876 20.38 34.0809 20.6 34.9876 20.6C35.8543 20.6 36.5343 20.3867 37.0276 19.96C37.5343 19.52 37.7876 18.96 37.7876 18.28C37.7876 17.7467 37.6409 17.3133 37.3476 16.98C37.0543 16.6467 36.6876 16.3933 36.2476 16.22C35.8076 16.0467 35.2143 15.86 34.4676 15.66C33.5476 15.42 32.8076 15.18 32.2476 14.94C31.7009 14.7 31.2276 14.3267 30.8276 13.82C30.4409 13.3 30.2476 12.6067 30.2476 11.74C30.2476 10.98 30.4409 10.3067 30.8276 9.72C31.2143 9.13333 31.7543 8.68 32.4476 8.36C33.1543 8.04 33.9609 7.88 34.8676 7.88C36.1743 7.88 37.2409 8.20667 38.0676 8.86C38.9076 9.51333 39.3809 10.38 39.4876 11.46H37.4876C37.4209 10.9267 37.1409 10.46 36.6476 10.06C36.1543 9.64667 35.5009 9.44 34.6876 9.44C33.9276 9.44 33.3076 9.64 32.8276 10.04C32.3476 10.4267 32.1076 10.9733 32.1076 11.68C32.1076 12.1867 32.2476 12.6 32.5276 12.92C32.8209 13.24 33.1743 13.4867 33.5876 13.66C34.0143 13.82 34.6076 14.0067 35.3676 14.22C36.2876 14.4733 37.0276 14.7267 37.5876 14.98C38.1476 15.22 38.6276 15.6 39.0276 16.12C39.4276 16.6267 39.6276 17.32 39.6276 18.2C39.6276 18.88 39.4476 19.52 39.0876 20.12C38.7276 20.72 38.1943 21.2067 37.4876 21.58C36.7809 21.9533 35.9476 22.14 34.9876 22.14ZM53.0459 8.06V22H51.2259V15.68H44.1259V22H42.3059V8.06H44.1259V14.18H51.2259V8.06H53.0459ZM62.4735 22.14C61.1802 22.14 60.0002 21.84 58.9335 21.24C57.8669 20.6267 57.0202 19.78 56.3935 18.7C55.7802 17.6067 55.4735 16.38 55.4735 15.02C55.4735 13.66 55.7802 12.44 56.3935 11.36C57.0202 10.2667 57.8669 9.42 58.9335 8.82C60.0002 8.20667 61.1802 7.9 62.4735 7.9C63.7802 7.9 64.9669 8.20667 66.0335 8.82C67.1002 9.42 67.9402 10.26 68.5535 11.34C69.1669 12.42 69.4735 13.6467 69.4735 15.02C69.4735 16.3933 69.1669 17.62 68.5535 18.7C67.9402 19.78 67.1002 20.6267 66.0335 21.24C64.9669 21.84 63.7802 22.14 62.4735 22.14ZM62.4735 20.56C63.4469 20.56 64.3202 20.3333 65.0935 19.88C65.8802 19.4267 66.4935 18.78 66.9335 17.94C67.3869 17.1 67.6135 16.1267 67.6135 15.02C67.6135 13.9 67.3869 12.9267 66.9335 12.1C66.4935 11.26 65.8869 10.6133 65.1135 10.16C64.3402 9.70667 63.4602 9.48 62.4735 9.48C61.4869 9.48 60.6069 9.70667 59.8335 10.16C59.0602 10.6133 58.4469 11.26 57.9935 12.1C57.5535 12.9267 57.3335 13.9 57.3335 15.02C57.3335 16.1267 57.5535 17.1 57.9935 17.94C58.4469 18.78 59.0602 19.4267 59.8335 19.88C60.6202 20.3333 61.5002 20.56 62.4735 20.56ZM89.3962 8.06L85.3562 22H83.3162L80.0762 10.78L76.7162 22L74.6962 22.02L70.7962 8.06H72.7362L75.7762 19.88L79.1362 8.06H81.1762L84.3762 19.84L87.4362 8.06H89.3962Z" fill="white"/>
</svg>
